<svg width="28" height="28" viewBox="0 0 28 28" fill="none" xmlns="http://www.w3.org/2000/svg">
<path d="M14.001 0C10.1988 0 9.72164 0.0166253 8.22829 0.0845836C6.73786 0.152834 5.72052 0.388792 4.83034 0.735C3.90954 1.09258 3.12845 1.57092 2.35027 2.34938C1.57152 3.12754 1.09318 3.90862 0.734424 4.82912C0.387337 5.71958 0.151085 6.73721 0.0840009 8.22704C0.0175002 9.72038 0 10.1978 0 14C0 17.8022 0.0169171 18.2779 0.0845845 19.7712C0.153127 21.2616 0.389088 22.279 0.735008 23.1691C1.09289 24.0899 1.57122 24.871 2.34969 25.6492C3.12757 26.4279 3.90867 26.9074 4.82888 27.265C5.71964 27.6112 6.73728 27.8472 8.22742 27.9154C9.72077 27.9834 10.1976 28 13.9996 28C17.8021 28 18.2778 27.9834 19.7711 27.9154C21.2616 27.8472 22.2801 27.6112 23.1708 27.265C24.0913 26.9074 24.8713 26.4279 25.6491 25.6492C26.4279 24.871 26.9062 24.0899 27.265 23.1694C27.6092 22.279 27.8454 21.2613 27.9154 19.7715C27.9825 18.2782 28 17.8022 28 14C28 10.1978 27.9825 9.72067 27.9154 8.22733C27.8454 6.73692 27.6092 5.71958 27.265 4.82942C26.9062 3.90862 26.4279 3.12754 25.6491 2.34938C24.8704 1.57063 24.0916 1.09229 23.17 0.735C22.2774 0.388792 21.2595 0.152834 19.7691 0.0845836C18.2757 0.0166253 17.8003 0 13.9969 0H14.001ZM12.7451 2.52292C13.1178 2.52233 13.5338 2.52292 14.001 2.52292C17.7391 2.52292 18.1821 2.53633 19.6582 2.60342C21.0233 2.66583 21.7641 2.89392 22.2576 3.08554C22.9109 3.33929 23.3767 3.64263 23.8665 4.13263C24.3565 4.62263 24.6598 5.08929 24.9141 5.74263C25.1058 6.23554 25.3341 6.97637 25.3963 8.34137C25.4633 9.81721 25.4779 10.2605 25.4779 13.9968C25.4779 17.733 25.4633 18.1764 25.3963 19.6522C25.3338 21.0172 25.1058 21.758 24.9141 22.251C24.6604 22.9043 24.3565 23.3695 23.8665 23.8592C23.3765 24.3492 22.9112 24.6525 22.2576 24.9063C21.7647 25.0988 21.0233 25.3263 19.6582 25.3887C18.1824 25.4558 17.7391 25.4704 14.001 25.4704C10.2627 25.4704 9.81964 25.4558 8.3438 25.3887C6.97878 25.3257 6.23794 25.0976 5.74414 24.906C5.0908 24.6523 4.62413 24.3489 4.13413 23.8589C3.64412 23.3689 3.34079 22.9034 3.08645 22.2498C2.89482 21.7569 2.66644 21.016 2.60432 19.651C2.53724 18.1752 2.52382 17.7319 2.52382 13.9933C2.52382 10.2547 2.53724 9.81371 2.60432 8.33788C2.66674 6.97288 2.89482 6.23204 3.08645 5.73854C3.3402 5.08521 3.64412 4.61854 4.13413 4.12854C4.62413 3.63854 5.0908 3.33521 5.74414 3.08087C6.23765 2.88837 6.97878 2.66088 8.3438 2.59817C9.63531 2.53983 10.1358 2.52233 12.7451 2.51942V2.52292Z" fill="black"/>
<path d="M21.4441 4.81311C21.1118 4.81311 20.7869 4.91166 20.5106 5.09628C20.2344 5.28091 20.019 5.54332 19.8919 5.85034C19.7647 6.15735 19.7315 6.49517 19.7964 6.82108C19.8613 7.14698 20.0213 7.44633 20.2563 7.68126C20.4913 7.91619 20.7907 8.07614 21.1167 8.1409C21.4426 8.20566 21.7804 8.17231 22.0874 8.04506C22.3944 7.91782 22.6567 7.7024 22.8412 7.42604C23.0258 7.14969 23.1242 6.82482 23.1241 6.49253C23.1241 5.56503 22.3716 4.81253 21.4441 4.81253V4.81311Z" fill="black"/>
<path fill-rule="evenodd" clip-rule="evenodd" d="M13.9709 6.77603C10.0004 6.77603 6.78126 9.99515 6.78126 13.9656C6.78126 17.9361 10.0004 21.1537 13.9709 21.1537C17.9414 21.1537 21.1597 17.9361 21.1597 13.9656C21.1597 9.99515 17.9414 6.77603 13.9709 6.77603ZM14 18.5938C16.5371 18.5938 18.5938 16.5371 18.5938 14C18.5938 11.463 16.5371 9.40628 14 9.40628C11.4629 9.40628 9.40626 11.463 9.40626 14C9.40626 16.5371 11.4629 18.5938 14 18.5938Z" fill="black"/>
<path d="M14.001 0C10.1988 0 9.72164 0.0166253 8.22829 0.0845836C6.73786 0.152834 5.72052 0.388792 4.83034 0.735C3.90954 1.09258 3.12845 1.57092 2.35027 2.34938C1.57152 3.12754 1.09318 3.90862 0.734424 4.82912C0.387337 5.71958 0.151085 6.73721 0.0840009 8.22704C0.0175002 9.72038 0 10.1978 0 14C0 17.8022 0.0169171 18.2779 0.0845845 19.7712C0.153127 21.2616 0.389088 22.279 0.735008 23.1691C1.09289 24.0899 1.57122 24.871 2.34969 25.6492C3.12757 26.4279 3.90867 26.9074 4.82888 27.265C5.71964 27.6112 6.73728 27.8472 8.22742 27.9154C9.72077 27.9834 10.1976 28 13.9996 28C17.8021 28 18.2778 27.9834 19.7711 27.9154C21.2616 27.8472 22.2801 27.6112 23.1708 27.265C24.0913 26.9074 24.8713 26.4279 25.6491 25.6492C26.4279 24.871 26.9062 24.0899 27.265 23.1694C27.6092 22.279 27.8454 21.2613 27.9154 19.7715C27.9825 18.2782 28 17.8022 28 14C28 10.1978 27.9825 9.72067 27.9154 8.22733C27.8454 6.73692 27.6092 5.71958 27.265 4.82942C26.9062 3.90862 26.4279 3.12754 25.6491 2.34938C24.8704 1.57063 24.0916 1.09229 23.17 0.735C22.2774 0.388792 21.2595 0.152834 19.7691 0.0845836C18.2757 0.0166253 17.8003 0 13.9969 0H14.001ZM12.7451 2.52292C13.1178 2.52233 13.5338 2.52292 14.001 2.52292C17.7391 2.52292 18.1821 2.53633 19.6582 2.60342C21.0233 2.66583 21.7641 2.89392 22.2576 3.08554C22.9109 3.33929 23.3767 3.64263 23.8665 4.13263C24.3565 4.62263 24.6598 5.08929 24.9141 5.74263C25.1058 6.23554 25.3341 6.97637 25.3963 8.34137C25.4633 9.81721 25.4779 10.2605 25.4779 13.9968C25.4779 17.733 25.4633 18.1764 25.3963 19.6522C25.3338 21.0172 25.1058 21.758 24.9141 22.251C24.6604 22.9043 24.3565 23.3695 23.8665 23.8592C23.3765 24.3492 22.9112 24.6525 22.2576 24.9063C21.7647 25.0988 21.0233 25.3263 19.6582 25.3887C18.1824 25.4558 17.7391 25.4704 14.001 25.4704C10.2627 25.4704 9.81964 25.4558 8.3438 25.3887C6.97878 25.3257 6.23794 25.0976 5.74414 24.906C5.0908 24.6523 4.62413 24.3489 4.13413 23.8589C3.64412 23.3689 3.34079 22.9034 3.08645 22.2498C2.89482 21.7569 2.66644 21.016 2.60432 19.651C2.53724 18.1752 2.52382 17.7319 2.52382 13.9933C2.52382 10.2547 2.53724 9.81371 2.60432 8.33788C2.66674 6.97288 2.89482 6.23204 3.08645 5.73854C3.3402 5.08521 3.64412 4.61854 4.13413 4.12854C4.62413 3.63854 5.0908 3.33521 5.74414 3.08087C6.23765 2.88837 6.97878 2.66088 8.3438 2.59817C9.63531 2.53983 10.1358 2.52233 12.7451 2.51942V2.52292Z" fill="black"/>
<path d="M21.4441 4.81311C21.1118 4.81311 20.7869 4.91166 20.5106 5.09628C20.2344 5.28091 20.019 5.54332 19.8919 5.85034C19.7647 6.15735 19.7315 6.49517 19.7964 6.82108C19.8613 7.14698 20.0213 7.44633 20.2563 7.68126C20.4913 7.91619 20.7907 8.07614 21.1167 8.1409C21.4426 8.20566 21.7804 8.17231 22.0874 8.04506C22.3944 7.91782 22.6567 7.7024 22.8412 7.42604C23.0258 7.14969 23.1242 6.82482 23.1241 6.49253C23.1241 5.56503 22.3716 4.81253 21.4441 4.81253V4.81311Z" fill="black"/>
<path fill-rule="evenodd" clip-rule="evenodd" d="M13.9709 6.77603C10.0004 6.77603 6.78126 9.99515 6.78126 13.9656C6.78126 17.9361 10.0004 21.1537 13.9709 21.1537C17.9414 21.1537 21.1597 17.9361 21.1597 13.9656C21.1597 9.99515 17.9414 6.77603 13.9709 6.77603ZM14 18.5938C16.5371 18.5938 18.5938 16.5371 18.5938 14C18.5938 11.463 16.5371 9.40628 14 9.40628C11.4629 9.40628 9.40626 11.463 9.40626 14C9.40626 16.5371 11.4629 18.5938 14 18.5938Z" fill="black"/>
</svg>
