<svg width="103" height="53" viewBox="0 0 103 53" fill="none" xmlns="http://www.w3.org/2000/svg">
<path d="M93.0398 52.9003H47.0366L54.7807 3.86914H100.784L93.0398 52.9003Z" fill="#F49916"/>
<path d="M12.2043 22.0017L9.52686 7.6769H13.3999L14.5252 15.4058C14.5913 15.8694 14.6405 16.2722 14.6703 16.6142C14.7002 16.9561 14.7216 17.2813 14.7344 17.5876C14.854 17.1177 14.9693 16.6897 15.0824 16.3016C15.1956 15.9135 15.2938 15.5883 15.3813 15.3281L17.9712 7.6769H21.5668L22.6215 15.4058C22.6877 15.8568 22.7368 16.2533 22.7667 16.5995C22.7966 16.9456 22.8179 17.275 22.8307 17.5876C22.8841 17.3191 22.961 17.0212 23.0656 16.6918C23.1681 16.3624 23.3261 15.9072 23.5396 15.326L26.4775 7.6748H30.5193L24.415 21.9996H20.4223L19.4274 15.3365C19.3612 14.8855 19.3121 14.4868 19.2779 14.1386C19.2438 13.7903 19.2245 13.4588 19.2181 13.1463C19.105 13.5763 18.9939 13.9833 18.8851 14.3652C18.7762 14.747 18.6715 15.0932 18.5712 15.4078L16.3613 22.0017H12.2043Z" fill="#1E1F23"/>
<path d="M28.9137 17.5289C28.9137 15.8526 29.471 14.4763 30.5876 13.4001C31.7022 12.3238 33.1305 11.7847 34.8685 11.7847C36.4741 11.7847 37.7595 12.2315 38.7224 13.1253C39.6853 14.019 40.1657 15.2127 40.1657 16.7065C40.1657 18.3638 39.6021 19.7275 38.4726 20.7975C37.3431 21.8674 35.8891 22.4024 34.1106 22.4024C32.537 22.4024 31.2773 21.9597 30.3314 21.0723C29.3856 20.1849 28.9137 19.0037 28.9137 17.5289ZM34.7981 14.6232C34.1084 14.6232 33.5213 14.9085 33.0409 15.4792C32.5605 16.0498 32.3192 16.7463 32.3192 17.5687C32.3192 18.175 32.4943 18.6576 32.8466 19.0163C33.1989 19.3751 33.6665 19.5534 34.2515 19.5534C34.9881 19.5534 35.5945 19.2785 36.0685 18.7268C36.5425 18.175 36.7795 17.4701 36.7795 16.6079C36.7795 15.9953 36.6022 15.5106 36.2478 15.154C35.8912 14.8015 35.4087 14.6232 34.7981 14.6232Z" fill="#1E1F23"/>
<path d="M41.4105 17.5289C41.4105 15.8526 41.9678 14.4763 43.0845 13.4001C44.199 12.3238 45.6274 11.7847 47.3654 11.7847C48.971 11.7847 50.2563 12.2315 51.2192 13.1253C52.1822 14.019 52.6626 15.2127 52.6626 16.7065C52.6626 18.3638 52.0989 19.7275 50.9694 20.7975C49.8399 21.8674 48.3859 22.4024 46.6074 22.4024C45.0338 22.4024 43.7741 21.9597 42.8282 21.0723C41.8824 20.1849 41.4105 19.0037 41.4105 17.5289ZM47.2949 14.6232C46.6053 14.6232 46.0181 14.9085 45.5377 15.4792C45.0573 16.0498 44.816 16.7463 44.816 17.5687C44.816 18.175 44.9911 18.6576 45.3434 19.0163C45.6957 19.3751 46.1633 19.5534 46.7483 19.5534C47.4849 19.5534 48.0913 19.2785 48.5653 18.7268C49.0393 18.175 49.2763 17.4701 49.2763 16.6079C49.2763 15.9953 49.0991 15.5106 48.7446 15.154C48.3881 14.8015 47.9055 14.6232 47.2949 14.6232Z" fill="#1E1F23"/>
<path d="M67.1813 6.83569L64.7515 22.0018H61.4058L61.615 20.7199C61.1175 21.2738 60.571 21.6934 59.9774 21.9766C59.3838 22.2598 58.7433 22.4025 58.0601 22.4025C56.905 22.4025 55.957 21.9745 55.2161 21.1164C54.4752 20.2584 54.1058 19.1507 54.1058 17.7954C54.1058 16.0876 54.6055 14.6715 55.6047 13.5491C56.6039 12.4267 57.8572 11.8666 59.3646 11.8666C60.0415 11.8666 60.6542 12.005 61.2008 12.282C61.7495 12.5589 62.2641 12.9953 62.7488 13.589V13.3058C62.7488 13.1107 62.7594 12.9072 62.7787 12.6953C62.7979 12.4834 62.8256 12.2673 62.8577 12.0449L63.6946 6.83989H67.1813V6.83569ZM57.7611 17.3527C57.7611 17.9863 57.9576 18.494 58.3483 18.8779C58.739 19.2639 59.2579 19.4549 59.9027 19.4549C60.6051 19.4549 61.1944 19.1863 61.6641 18.6471C62.136 18.1101 62.3709 17.4366 62.3709 16.6268C62.3709 16.0142 62.1723 15.517 61.7794 15.1352C61.3844 14.7534 60.8742 14.5624 60.2507 14.5624C59.5269 14.5624 58.9312 14.8247 58.4636 15.3492C57.9939 15.8779 57.7611 16.545 57.7611 17.3527Z" fill="#1E1F23"/>
<path d="M67.3394 22.0018L68.9321 12.1205H72.3376L72.0878 13.803C72.3996 13.1778 72.8181 12.7016 73.3433 12.3743C73.8685 12.0491 74.4792 11.8855 75.1752 11.8855C75.2478 11.8855 75.3311 11.8897 75.425 11.9002C75.5168 11.9107 75.6642 11.9317 75.8627 11.9631L75.156 15.0639C74.9233 15.0114 74.714 14.9737 74.5283 14.9464C74.3425 14.9212 74.1632 14.9065 73.9902 14.9065C73.307 14.9065 72.7668 15.1163 72.3718 15.538C71.9768 15.9597 71.7057 16.6101 71.5605 17.4891L70.8431 21.9997H67.3394V22.0018Z" fill="#1E1F23"/>
<path d="M76.311 22.0017L77.496 14.6442H75.8242L76.232 12.1204H77.906L78.0661 11.1218C78.0853 11.0378 78.1088 10.9099 78.1365 10.7399C78.3415 9.40354 78.6404 8.49303 79.0333 8.0105C79.3984 7.55944 79.8681 7.21118 80.4425 6.96362C81.0168 6.71606 81.6488 6.59229 82.3385 6.59229C82.6566 6.59229 82.9896 6.62585 83.3398 6.69508C83.6878 6.76431 84.0508 6.86922 84.4309 7.01398L83.9825 9.84201C83.7903 9.7497 83.5982 9.68046 83.4103 9.63221C83.2202 9.58396 83.0473 9.55878 82.8872 9.55878C82.4964 9.55878 82.2018 9.68046 82.0054 9.91963C81.8089 10.1609 81.6616 10.6015 81.5613 11.2413L81.4118 12.1225H83.6216L83.2138 14.6463H81.0232L79.8489 22.0038H76.311V22.0017Z" fill="#1E1F23"/>
<path d="M84.8046 12.1183H88.3297L87.6721 16.2072C87.5931 16.7485 87.529 17.1995 87.482 17.5625C87.4351 17.9254 87.4116 18.1604 87.4116 18.2716C87.4116 18.7415 87.5269 19.1003 87.7553 19.3478C87.9838 19.5954 88.319 19.7192 88.7567 19.7192C89.7794 19.7192 90.4691 18.58 90.8278 16.3037C90.847 16.1799 90.8641 16.0855 90.8769 16.0205L91.5046 12.1162H95.0403L94.3229 16.5869L94.2931 16.7925C93.9408 18.9136 93.3942 20.3276 92.649 21.0388C92.1772 21.4815 91.6007 21.8171 90.9217 22.0416C90.2406 22.2661 89.472 22.3794 88.6158 22.3794C87.1362 22.3794 85.9682 22.05 85.1163 21.3913C84.2644 20.7325 83.8374 19.8388 83.8374 18.7101C83.8374 18.4499 83.8609 18.1205 83.9079 17.7261C83.9548 17.3317 84.0466 16.7233 84.1876 15.9009L84.8046 12.1183Z" fill="#1E1F23"/>
<path d="M98.7746 4.88452H102.351L99.5646 22.0017H95.999L98.7746 4.88452Z" fill="#1E1F23"/>
<path d="M16.0069 39.1527C15.4475 43.6234 12.0634 46.869 7.74405 46.869C3.67879 46.869 0.864707 43.5101 1.40916 39.1527L1.68886 36.9058H4.90007L4.65667 38.8569C4.2873 41.8066 5.61747 43.9171 8.13477 43.9171C10.6756 43.9171 12.3986 41.966 12.7872 38.8569L14.0832 28.4846H17.3392L16.0069 39.1527Z" fill="#1E1F23"/>
<path d="M31.0595 43.1008H28.0105C27.3294 45.5973 25.4164 46.8456 22.2756 46.8456H21.9297L22.2479 44.3029H22.5254C23.7723 44.3029 24.5687 43.8498 24.9338 42.9644C24.6691 43.0546 24.0157 43.1008 22.9311 43.1008C19.9056 43.1008 17.9563 40.9441 18.3342 37.9251C18.7164 34.8621 21.1461 32.7957 24.2186 32.7957C27.1757 32.7957 29.0738 34.9754 28.698 37.9923L28.4397 40.0567H31.4417L31.0595 43.1008ZM25.2029 40.0609L25.4783 37.8601C25.6448 36.5216 24.9445 35.6594 23.7659 35.6594C22.5425 35.6594 21.7781 36.5887 21.6287 37.793C21.4664 39.0874 22.1304 40.063 23.3325 40.063H25.2029V40.0609Z" fill="#1E1F23"/>
<path d="M44.6409 37.9272C44.4487 39.4713 43.8061 40.7196 42.7172 41.6721C41.6517 42.6245 40.2981 43.1029 38.7053 43.1029H30.2502L30.6303 40.0609H34.0956C33.9226 39.4021 33.897 38.6993 33.9888 37.9503C34.3838 34.795 36.6428 32.7977 39.854 32.7977C41.4703 32.7977 42.73 33.253 43.6096 34.1593C44.4915 35.0447 44.8416 36.316 44.6409 37.9272ZM41.419 38.0175C41.6432 36.2237 41.0603 35.3405 39.6981 35.3405H39.4675C38.8206 35.3405 38.2783 35.6132 37.8384 36.1796C37.4776 36.6559 37.2427 37.2454 37.1616 37.9042C37.0677 38.6531 37.1552 39.2427 37.4434 39.721C37.768 40.2665 38.2889 40.5371 39.0042 40.5371C39.6746 40.5371 40.2362 40.2874 40.6952 39.765C41.0988 39.2888 41.3293 38.7203 41.419 38.0175ZM41.4083 31.0732H38.543L38.8697 28.4634H41.735L41.4083 31.0732Z" fill="#1E1F23"/>
<path d="M52.6155 41.0134C52.355 43.1008 51.6355 44.5988 50.4334 45.5303C49.3296 46.4156 47.6578 46.8478 45.4415 46.8478L45.7618 44.2841C47.8862 44.2841 49.0734 43.2855 49.3232 41.2882L50.38 32.823H53.6361L52.6155 41.0134Z" fill="#1E1F23"/>
<path d="M66.1458 43.1009H54.5265L54.9065 40.0589H63.2911C63.6883 36.8826 62.1083 35.4749 57.9982 35.4749L58.3291 32.8188C60.3618 32.8188 61.7773 32.9552 62.5951 33.251C65.6013 34.3399 66.9571 36.6098 66.528 40.0379L66.1458 43.1009Z" fill="#1E1F23"/>
<path d="M78.6981 42.6476C78.3501 45.44 76.4178 46.8456 72.8842 46.8456H72.5618L72.8799 44.3029H73.087C74.3809 44.3029 75.7623 43.4175 75.9139 42.1923C75.3866 42.8952 74.5816 43.2371 73.497 43.2371C70.5164 43.2371 68.5777 41.0133 68.9577 37.9713C69.3463 34.8621 71.7782 32.7747 74.8037 32.7747C77.7843 32.7747 79.6504 35.0216 79.2767 38.0174L78.6981 42.6476ZM76.042 38.0174C76.215 36.6328 75.5296 35.6572 74.3745 35.6572C73.2429 35.6572 72.3611 36.6097 72.1946 37.9503C72.0366 39.2217 72.6408 40.2874 73.9112 40.2874C75.0663 40.2874 75.8691 39.4021 76.042 38.0174Z" fill="#1E1F23"/>
<path d="M91.2163 42.6476C90.8683 45.44 88.936 46.8456 85.4024 46.8456H85.08L85.3981 44.3029H85.6052C86.8991 44.3029 88.2805 43.4175 88.4321 42.1923C87.9047 42.8952 87.0998 43.2371 86.0152 43.2371C83.0345 43.2371 81.0959 41.0133 81.4759 37.9713C81.8645 34.8621 84.2964 32.7747 87.3219 32.7747C90.3025 32.7747 92.1686 35.0216 91.7949 38.0174L91.2163 42.6476ZM88.5624 38.0174C88.7353 36.6328 88.0499 35.6572 86.8948 35.6572C85.7632 35.6572 84.8814 36.6097 84.7149 37.9503C84.5569 39.2217 85.1611 40.2874 86.4315 40.2874C87.5845 40.2874 88.3894 39.4021 88.5624 38.0174Z" fill="#1E1F23"/>
<path d="M4.84459 35.8061H1.67395L4.41544 8.24537C4.84673 3.90891 8.55755 0.602539 12.9922 0.602539H103L102.496 3.86905H13.0755C10.2998 3.86905 7.97467 5.93133 7.6907 8.64188L4.84459 35.8061Z" fill="#1E1F23"/>
<path d="M94.767 52.9002H0L0.362965 49.2309L91.7053 49.4008L95.9968 22.8911H99.4045L94.767 52.9002Z" fill="#1E1F23"/>
</svg>
