<svg width="18" height="17" viewBox="0 0 18 17" fill="none" xmlns="http://www.w3.org/2000/svg">
<path d="M17.4875 5.76098C17.4183 5.60277 17.2583 5.50003 17.081 5.50003H11.6929L9.16148 0.247138C9.08879 0.0962605 8.93284 0 8.76136 0C8.58989 0 8.43394 0.0962605 8.36125 0.247138L5.82984 5.50003H0.441765C0.264462 5.50003 0.104418 5.60277 0.035179 5.76098C-0.03406 5.91918 0.000670034 6.10228 0.123828 6.22616L4.11377 10.2406L2.50921 16.4674C2.46629 16.634 2.52992 16.8094 2.67098 16.9129C2.81204 17.0165 3.00337 17.0285 3.15694 16.9435L8.76136 13.8364L14.3658 16.9435C14.4339 16.9814 14.5094 17 14.5849 17C14.6792 17 14.7732 16.9707 14.8517 16.9129C14.9928 16.8094 15.0564 16.634 15.0135 16.4674L13.409 10.2406L17.3989 6.22616C17.5221 6.10228 17.5568 5.91918 17.4875 5.76098Z" fill="#F9BF29"/>
</svg>
