<svg width="28" height="28" viewBox="0 0 28 28" fill="none" xmlns="http://www.w3.org/2000/svg">
<path d="M20.104 16.8C20.216 15.876 20.3 14.952 20.3 14C20.3 13.048 20.216 12.124 20.104 11.2H24.836C25.06 12.096 25.2 13.034 25.2 14C25.2 14.966 25.06 15.904 24.836 16.8M17.626 24.584C18.466 23.03 19.11 21.35 19.558 19.6H23.688C22.3316 21.9356 20.1798 23.7048 17.626 24.584ZM17.276 16.8H10.724C10.584 15.876 10.5 14.952 10.5 14C10.5 13.048 10.584 12.11 10.724 11.2H17.276C17.402 12.11 17.5 13.048 17.5 14C17.5 14.952 17.402 15.876 17.276 16.8ZM14 25.144C12.838 23.464 11.9 21.602 11.326 19.6H16.674C16.1 21.602 15.162 23.464 14 25.144ZM8.4 8.4H4.312C5.6544 6.0581 7.80471 4.28608 10.36 3.416C9.52 4.97 8.89 6.65 8.4 8.4ZM4.312 19.6H8.4C8.89 21.35 9.52 23.03 10.36 24.584C7.81007 23.7043 5.66278 21.9348 4.312 19.6ZM3.164 16.8C2.94 15.904 2.8 14.966 2.8 14C2.8 13.034 2.94 12.096 3.164 11.2H7.896C7.784 12.124 7.7 13.048 7.7 14C7.7 14.952 7.784 15.876 7.896 16.8M14 2.842C15.162 4.522 16.1 6.398 16.674 8.4H11.326C11.9 6.398 12.838 4.522 14 2.842ZM23.688 8.4H19.558C19.1198 6.66604 18.471 4.99225 17.626 3.416C20.202 4.298 22.344 6.076 23.688 8.4ZM14 0C6.258 0 0 6.3 0 14C0 17.713 1.475 21.274 4.1005 23.8995C5.40053 25.1995 6.94387 26.2307 8.64243 26.9343C10.341 27.6379 12.1615 28 14 28C17.713 28 21.274 26.525 23.8995 23.8995C26.525 21.274 28 17.713 28 14C28 12.1615 27.6379 10.341 26.9343 8.64243C26.2307 6.94387 25.1995 5.40053 23.8995 4.1005C22.5995 2.80048 21.0561 1.76925 19.3576 1.06569C17.659 0.362121 15.8385 0 14 0Z" fill="black"/>
</svg>
