<svg width="28" height="28" viewBox="0 0 28 28" fill="none" xmlns="http://www.w3.org/2000/svg">
<path d="M0 28L1.97792 20.8104C0.758007 18.7064 0.116195 16.3194 0.116978 13.8741C0.120104 6.22387 6.37373 0 14.0585 0C17.7877 0.00181089 21.2879 1.4466 23.9204 4.06918C26.5521 6.69177 28.0013 10.1776 28 13.8852C27.9966 21.5349 21.7419 27.7598 14.0585 27.7598C14.0579 27.7598 14.0591 27.7598 14.0585 27.7598H14.0525C11.7195 27.7589 9.4269 27.1762 7.39049 26.0707L0 28Z" fill="white"/>
<path d="M14.063 2.34363C7.67127 2.34363 2.4733 7.51651 2.47095 13.8748C2.47 16.0536 3.0825 18.1758 4.24236 20.0121L4.51809 20.4483L3.3472 24.7036L7.73289 23.5588L8.15638 23.8086C9.93507 24.8596 11.9743 25.4153 14.0541 25.4163H14.0585C20.4453 25.4163 25.6433 20.2429 25.6459 13.8841C25.647 10.8027 24.443 7.90512 22.2551 5.72548C20.0673 3.54584 17.1582 2.34493 14.063 2.34363Z" fill="black"/>
<path fill-rule="evenodd" clip-rule="evenodd" d="M10.5743 8.07367C10.3132 7.49633 10.0385 7.48463 9.79043 7.4745C9.58729 7.46592 9.3549 7.46644 9.12277 7.46644C8.89038 7.46644 8.51308 7.55326 8.194 7.90029C7.87466 8.24731 6.97461 9.08616 6.97461 10.7924C6.97461 12.4987 8.22298 14.1473 8.39688 14.3789C8.57104 14.6102 10.8067 18.2235 14.3476 19.6134C17.2901 20.7686 17.8888 20.5388 18.5277 20.4811C19.1664 20.4234 20.5887 19.6423 20.8788 18.8325C21.1691 18.0228 21.1691 17.329 21.0822 17.184C20.995 17.0392 20.7628 16.9526 20.4143 16.7792C20.0659 16.6058 18.3533 15.7667 18.034 15.6511C17.7146 15.5354 17.4825 15.4777 17.2501 15.8247C17.018 16.1717 16.3508 16.9526 16.1474 17.184C15.9443 17.4156 15.7412 17.4444 15.3926 17.271C15.0442 17.0971 13.9223 16.7314 12.5914 15.55C11.5558 14.6308 10.8568 13.4956 10.6534 13.1486C10.4503 12.8016 10.6317 12.6139 10.8064 12.441C10.9628 12.2856 11.1547 12.036 11.3292 11.8335C11.5028 11.631 11.561 11.4865 11.677 11.2554C11.7932 11.0238 11.7352 10.8213 11.648 10.6479C11.561 10.4745 10.884 8.7594 10.5743 8.07367" fill="white"/>
</svg>
